@startuml
annotation java.lang.Override
class control.Controlador
class control.Launcher
class java.awt.event.ActionEvent
class java.lang.Thread
class java.util.logging.Level
class java.util.logging.Logger
class modelo.Tiempo
class vista.Ventana
interface java.awt.event.ActionListener
control.Controlador ..> java.lang.Override
control.Controlador ..> java.awt.event.ActionEvent
control.Controlador --|> java.lang.Thread
control.Controlador ..> java.util.logging.Level
control.Controlador ..> java.util.logging.Logger
control.Controlador ..> modelo.Tiempo
control.Controlador ..> vista.Ventana
control.Controlador --|> java.awt.event.ActionListener
control.Launcher ..> vista.Ventana
@enduml